<svg xmlns="http://www.w3.org/2000/svg" viewBox="0 0 57.13 63.86"><title>s5</title><g data-name="&#x56FE;&#x5C42; 2"><g data-name="Layer 1"><path d="M51 24.77a11.54 11.54 0 0 0 6.09-10.59A14.34 14.34 0 0 0 42.6 0H23.14C4.08-.2-3.13 15.55 1.37 27.58A48.52 48.52 0 0 1 51 24.77z" fill="#1a1a1a"/><path d="M40.37 23.19c-.6-.24-.34-1.13.35-1.13a23.72 23.72 0 0 1 10 2.87l.28-.17a48.52 48.52 0 0 0-49.63 2.82 19.94 19.94 0 0 0 1 2.26 46.12 46.12 0 0 1 38-6.65z" fill="#fff"/><path d="M5.52 38.32A12.87 12.87 0 0 0 0 49.51c0 6.37 6.64 14.35 14.26 14.35H33.9C53 63.86 60.19 48 55.59 35.92a48.29 48.29 0 0 1-27 8.22 48.3 48.3 0 0 1-23.07-5.82z" fill="#1a1a1a"/><path d="M10.34 38l.42.25a20.6 20.6 0 0 0 7.44 2.33.59.59 0 0 1-.2 1.13 23.06 23.06 0 0 1-12.38-3.5l-.14.11a48.3 48.3 0 0 0 23.05 5.82 48.29 48.29 0 0 0 27-8.22 20.07 20.07 0 0 0-1-2.25 45.87 45.87 0 0 1-26 8A45.93 45.93 0 0 1 10.34 38z" fill="#fff"/><path d="M43.22 24.06l-1.13-.37c-.54-.16-1.07-.32-1.64-.45h-.08a46.12 46.12 0 0 0-38 6.65 19.71 19.71 0 0 0 8 8.12 45.93 45.93 0 0 0 18.23 3.75 45.87 45.87 0 0 0 26-8 20.26 20.26 0 0 0-11.38-9.7z" fill="#fbb03b"/></g></g></svg>