<svg id="mainsvg" xmlns="http://www.w3.org/2000/svg" xmlns:xlink="http://www.w3.org/1999/xlink" version="1.1" x="0px" y="0px" enable-background="new 0 0 200 162.5" xml:space="preserve" viewBox="0 0 245 31"><path fill="#000" transform="translate(-0.8, 23.264)" d="M4.22-2.56L4.22-2.56L4.22-22.88L5.76-22.88L5.76-3.58Q5.76 0.70 3.97 3.26L3.97 3.26Q3.07 4.58 2.14 5.46Q1.22 6.34-0.13 7.30L-0.13 7.30L-0.80 6.30Q4.22 2.62 4.22-2.56ZM28.61-2.14Q26.50 0.32 22.18 0.32Q17.86 0.32 15.74-2.14Q13.63-4.61 13.63-8.96L13.63-8.96L13.63-20.77L15.10-20.77L15.10-8.96Q15.10-0.99 22.18-0.99Q29.25-0.99 29.25-8.96L29.25-8.96L29.25-20.77L30.72-20.77L30.72-8.96Q30.72-4.61 28.61-2.14ZM49.22 0L38.21 0L38.21-20.77L39.68-20.77L39.68-1.34L49.22-1.34L49.22 0ZM55.04 0L53.57 0L53.57-20.77L55.04-20.77L55.04 0ZM77.50-2.14Q75.39 0.32 71.07 0.32Q66.75 0.32 64.64-2.14Q62.53-4.61 62.53-8.96L62.53-8.96L62.53-20.77L64-20.77L64-8.96Q64-0.99 71.07-0.99Q78.14-0.99 78.14-8.96L78.14-8.96L78.14-20.77L79.62-20.77L79.62-8.96Q79.62-4.61 77.50-2.14ZM91.30-19.87L91.30-19.87Q89.57-19.87 88.48-19.04Q87.39-18.21 87.39-16.70L87.39-16.70Q87.39-14.98 88.83-13.60L88.83-13.60Q89.86-12.61 91.47-11.50Q93.09-10.40 93.70-9.92Q94.30-9.44 95.17-8.61L95.17-8.61Q96.74-7.04 96.74-4.99L96.74-4.99Q96.74-2.34 94.96-0.98Q93.18 0.38 90.00 0.38Q86.82 0.38 84.67-1.28L84.67-1.28L85.44-2.40Q87.62-0.93 90.05-0.93Q92.48-0.93 93.84-1.95Q95.20-2.98 95.20-4.83L95.20-4.83Q95.20-6.43 93.82-7.78L93.82-7.78Q92.86-8.74 91.25-9.86Q89.63-10.98 88.99-11.47Q88.35-11.97 87.49-12.80L87.49-12.80Q85.86-14.43 85.86-16.58Q85.86-18.72 87.38-19.94Q88.90-21.15 91.58-21.15Q94.27-21.15 96.42-20.10L96.42-20.10L95.87-18.91Q93.89-19.87 91.30-19.87ZM113.44-22.11L112.90-20.86Q110.56-21.86 108.26-21.86L108.26-21.86Q103.58-21.86 103.58-18.40L103.58-18.40Q103.58-16.90 104.64-15.60Q105.70-14.30 107.20-13.30Q108.70-12.29 110.21-11.23Q111.71-10.18 112.77-8.70Q113.82-7.23 113.82-5.50L113.82-5.50Q113.82-2.59 111.87-1.10Q109.92 0.38 106.48 0.38Q103.04 0.38 100.61-1.38L100.61-1.38L101.38-2.53Q103.68-1.02 106.43-1.02Q109.18-1.02 110.66-2.13Q112.13-3.23 112.13-5.31L112.13-5.31Q112.13-6.75 111.07-8.05Q110.02-9.34 108.51-10.38Q107.01-11.42 105.50-12.51Q104-13.60 102.94-15.10Q101.89-16.61 101.89-18.34L101.89-18.34Q101.89-20.61 103.57-21.94Q105.25-23.26 108.11-23.26Q110.98-23.26 113.44-22.11L113.44-22.11ZM130.37-7.20L121.15-7.20L118.18 0L116.67 0L125.38-20.90L126.24-20.90L135.01 0L133.38 0L130.37-7.20ZM125.73-18.53L125.73-18.53Q125.25-17.09 124.86-16.13L124.86-16.13L121.66-8.45L129.86-8.45L126.69-16.10Q125.95-17.89 125.73-18.53ZM140.70 0L139.23 0L139.23-20.90L139.94-20.90L153.57-5.22Q154.30-4.38 154.93-3.57Q155.55-2.75 155.58-2.72L155.58-2.72Q155.52-3.49 155.52-5.73L155.52-5.73L155.52-20.77L156.99-20.77L156.99 0.13L156.29 0.13L142.40-15.81L140.64-17.95Q140.70-17.31 140.70-14.94L140.70-14.94L140.70 0ZM168.86-19.87L168.86-19.87Q167.14-19.87 166.05-19.04Q164.96-18.21 164.96-16.70L164.96-16.70Q164.96-14.98 166.40-13.60L166.40-13.60Q167.42-12.61 169.04-11.50Q170.66-10.40 171.26-9.92Q171.87-9.44 172.74-8.61L172.74-8.61Q174.30-7.04 174.30-4.99L174.30-4.99Q174.30-2.34 172.53-0.98Q170.75 0.38 167.57 0.38Q164.38 0.38 162.24-1.28L162.24-1.28L163.01-2.40Q165.18-0.93 167.62-0.93Q170.05-0.93 171.41-1.95Q172.77-2.98 172.77-4.83L172.77-4.83Q172.77-6.43 171.39-7.78L171.39-7.78Q170.43-8.74 168.82-9.86Q167.20-10.98 166.56-11.47Q165.92-11.97 165.06-12.80L165.06-12.80Q163.42-14.43 163.42-16.58Q163.42-18.72 164.94-19.94Q166.46-21.15 169.15-21.15Q171.84-21.15 173.98-20.10L173.98-20.10L173.44-18.91Q171.46-19.87 168.86-19.87ZM182.42-3.04Q179.23-6.46 179.23-11.46Q179.23-16.45 182.42-19.86Q185.60-23.26 190.46-23.26Q195.33-23.26 198.53-19.86Q201.73-16.45 201.73-11.46Q201.73-6.46 198.53-3.04Q195.33 0.38 190.46 0.38Q185.60 0.38 182.42-3.04ZM183.55-18.86Q180.90-15.87 180.90-11.46Q180.90-7.04 183.57-4.03Q186.24-1.02 190.48-1.02Q194.72-1.02 197.39-4.03Q200.06-7.04 200.06-11.46Q200.06-15.87 197.39-18.86Q194.72-21.86 190.46-21.86Q186.21-21.86 183.55-18.86ZM209.92 0L208.45 0L208.45-20.90L209.15-20.90L222.78-5.22Q223.52-4.38 224.14-3.57Q224.77-2.75 224.80-2.72L224.80-2.72Q224.74-3.49 224.74-5.73L224.74-5.73L224.74-20.77L226.21-20.77L226.21 0.13L225.50 0.13L211.62-15.81L209.86-17.95Q209.92-17.31 209.92-14.94L209.92-14.94L209.92 0ZM243.90 0L233.89 0L233.89-20.77L243.58-20.77L243.58-19.49L235.36-19.49L235.36-11.94L242.78-11.94L242.78-10.69L235.36-10.69L235.36-1.34L243.90-1.34L243.90 0Z"/></svg>