<svg id="mainsvg" xmlns="http://www.w3.org/2000/svg" xmlns:xlink="http://www.w3.org/1999/xlink" version="1.1" x="0px" y="0px" enable-background="new 0 0 200 162.5" xml:space="preserve" viewBox="0 0 235 36"><path fill="#000" transform="translate(-1.6, 26.528000000000002)" d="M20.13-14.88Q20.13-12.74 19.14-10.99Q18.14-9.25 16.21-8.22Q14.27-7.20 11.52-7.20L11.52-7.20L8.70-7.20L8.70 0L1.60 0L1.60-22.66L11.52-22.66Q15.68-22.66 17.90-20.54Q20.13-18.43 20.13-14.88L20.13-14.88ZM10.72-12.80Q12.93-12.80 12.93-14.88L12.93-14.88Q12.93-16.96 10.72-16.96L10.72-16.96L8.70-16.96L8.70-12.80L10.72-12.80ZM30.94 0.22Q28.22 0.22 26.05-0.90Q23.87-2.02 22.64-4.11Q21.41-6.21 21.41-9.02L21.41-9.02Q21.41-11.84 22.64-13.94Q23.87-16.03 26.05-17.15Q28.22-18.27 30.94-18.27L30.94-18.27Q33.66-18.27 35.84-17.15Q38.02-16.03 39.25-13.94Q40.48-11.84 40.48-9.02L40.48-9.02Q40.48-6.21 39.25-4.11Q38.02-2.02 35.84-0.90Q33.66 0.22 30.94 0.22L30.94 0.22ZM30.94-5.92Q31.94-5.92 32.61-6.70Q33.28-7.49 33.28-9.02L33.28-9.02Q33.28-10.56 32.61-11.34Q31.94-12.13 30.94-12.13L30.94-12.13Q29.95-12.13 29.28-11.34Q28.61-10.56 28.61-9.02L28.61-9.02Q28.61-7.49 29.26-6.70Q29.92-5.92 30.94-5.92L30.94-5.92ZM49.82-15.58Q50.50-16.83 51.76-17.55Q53.02-18.27 54.78-18.27L54.78-18.27Q56.90-18.27 58.59-17.17Q60.29-16.06 61.26-13.97Q62.24-11.87 62.24-9.02L62.24-9.02Q62.24-6.18 61.26-4.08Q60.29-1.98 58.59-0.88Q56.90 0.22 54.78 0.22L54.78 0.22Q53.02 0.22 51.76-0.50Q50.50-1.22 49.82-2.46L49.82-2.46L49.82 8.64L42.72 8.64L42.72-18.05L49.82-18.05L49.82-15.58ZM55.04-9.02Q55.04-10.46 54.30-11.26Q53.57-12.06 52.42-12.06L52.42-12.06Q51.26-12.06 50.53-11.26Q49.79-10.46 49.79-9.02L49.79-9.02Q49.79-7.58 50.53-6.78Q51.26-5.98 52.42-5.98L52.42-5.98Q53.57-5.98 54.30-6.78Q55.04-7.58 55.04-9.02L55.04-9.02ZM71.58-15.58Q72.26-16.83 73.52-17.55Q74.78-18.27 76.54-18.27L76.54-18.27Q78.66-18.27 80.35-17.17Q82.05-16.06 83.02-13.97Q84.00-11.87 84.00-9.02L84.00-9.02Q84.00-6.18 83.02-4.08Q82.05-1.98 80.35-0.88Q78.66 0.22 76.54 0.22L76.54 0.22Q74.78 0.22 73.52-0.50Q72.26-1.22 71.58-2.46L71.58-2.46L71.58 8.64L64.48 8.64L64.48-18.05L71.58-18.05L71.58-15.58ZM76.80-9.02Q76.80-10.46 76.06-11.26Q75.33-12.06 74.18-12.06L74.18-12.06Q73.02-12.06 72.29-11.26Q71.55-10.46 71.55-9.02L71.55-9.02Q71.55-7.58 72.29-6.78Q73.02-5.98 74.18-5.98L74.18-5.98Q75.33-5.98 76.06-6.78Q76.80-7.58 76.80-9.02L76.80-9.02ZM89.82-19.49Q87.97-19.49 86.85-20.48Q85.73-21.47 85.73-22.98L85.73-22.98Q85.73-24.51 86.85-25.52Q87.97-26.53 89.82-26.53L89.82-26.53Q91.65-26.53 92.77-25.52Q93.89-24.51 93.89-22.98L93.89-22.98Q93.89-21.47 92.77-20.48Q91.65-19.49 89.82-19.49L89.82-19.49ZM86.24-18.05L93.34-18.05L93.34 0L86.24 0L86.24-18.05ZM109.18-18.18Q112.29-18.18 114.03-16.10Q115.78-14.02 115.78-10.46L115.78-10.46L115.78 0L108.70 0L108.70-9.57Q108.70-10.85 108.02-11.60Q107.33-12.35 106.18-12.35L106.18-12.35Q104.99-12.35 104.32-11.60Q103.65-10.85 103.65-9.57L103.65-9.57L103.65 0L96.54 0L96.54-18.05L103.65-18.05L103.65-15.30Q104.48-16.58 105.87-17.38Q107.26-18.18 109.18-18.18L109.18-18.18ZM126.88 0.22Q124.32 0.22 122.35-0.61Q120.38-1.44 119.23-2.91Q118.08-4.38 117.92-6.24L117.92-6.24L124.74-6.24Q124.86-5.44 125.42-5.06Q125.98-4.67 126.85-4.67L126.85-4.67Q127.39-4.67 127.71-4.91Q128.03-5.15 128.03-5.50L128.03-5.50Q128.03-6.11 127.36-6.37Q126.69-6.62 125.09-6.94L125.09-6.94Q123.14-7.33 121.87-7.78Q120.61-8.22 119.66-9.31Q118.72-10.40 118.72-12.32L118.72-12.32Q118.72-13.98 119.60-15.34Q120.48-16.70 122.21-17.49Q123.94-18.27 126.40-18.27L126.40-18.27Q130.05-18.27 132.11-16.48Q134.18-14.69 134.59-11.81L134.59-11.81L128.29-11.81Q128.13-12.54 127.62-12.94Q127.10-13.34 126.24-13.34L126.24-13.34Q125.70-13.34 125.41-13.14Q125.12-12.93 125.12-12.51L125.12-12.51Q125.12-11.97 125.79-11.70Q126.46-11.42 127.94-11.14L127.94-11.14Q129.89-10.75 131.23-10.27Q132.58-9.79 133.57-8.62Q134.56-7.46 134.56-5.41L134.56-5.41Q134.56-3.81 133.63-2.53Q132.70-1.25 130.96-0.51Q129.22 0.22 126.88 0.22L126.88 0.22ZM157.98-11.62Q160.03-11.14 161.17-9.65Q162.30-8.16 162.30-6.21L162.30-6.21Q162.30-3.23 160.34-1.62Q158.37 0 154.69 0L154.69 0L142.82 0L142.82-22.66L154.37-22.66Q157.82-22.66 159.81-21.15Q161.79-19.65 161.79-16.77L161.79-16.77Q161.79-14.78 160.75-13.42Q159.71-12.06 157.98-11.62L157.98-11.62ZM149.92-17.02L149.92-13.82L152.67-13.82Q153.63-13.82 154.10-14.21Q154.56-14.59 154.56-15.39L154.56-15.39Q154.56-16.22 154.10-16.62Q153.63-17.02 152.67-17.02L152.67-17.02L149.92-17.02ZM153.15-5.70Q154.11-5.70 154.58-6.06Q155.04-6.43 155.04-7.26L155.04-7.26Q155.04-8.90 153.15-8.90L153.15-8.90L149.92-8.90L149.92-5.70L153.15-5.70ZM164.70-23.68L171.81-23.68L171.81 0L164.70 0L164.70-23.68ZM174.05-9.02Q174.05-11.87 175.02-13.97Q176.00-16.06 177.70-17.17Q179.39-18.27 181.50-18.27L181.50-18.27Q183.26-18.27 184.54-17.55Q185.82-16.83 186.50-15.58L186.50-15.58L186.50-18.05L193.57-18.05L193.57 0L186.50 0L186.50-2.46Q185.82-1.22 184.54-0.50Q183.26 0.22 181.50 0.22L181.50 0.22Q179.39 0.22 177.70-0.88Q176.00-1.98 175.02-4.08Q174.05-6.18 174.05-9.02L174.05-9.02ZM186.50-9.02Q186.50-10.46 185.76-11.26Q185.02-12.06 183.87-12.06L183.87-12.06Q182.72-12.06 181.98-11.26Q181.25-10.46 181.25-9.02L181.25-9.02Q181.25-7.58 181.98-6.78Q182.72-5.98 183.87-5.98L183.87-5.98Q185.02-5.98 185.76-6.78Q186.50-7.58 186.50-9.02L186.50-9.02ZM195.81-9.02Q195.81-11.84 196.98-13.94Q198.14-16.03 200.24-17.15Q202.34-18.27 205.02-18.27L205.02-18.27Q208.54-18.27 210.96-16.29Q213.38-14.30 214.02-10.78L214.02-10.78L206.50-10.78Q206.08-12.19 204.86-12.19L204.86-12.19Q204-12.19 203.50-11.39Q203.01-10.59 203.01-9.02L203.01-9.02Q203.01-7.46 203.50-6.66Q204-5.86 204.86-5.86L204.86-5.86Q206.08-5.86 206.50-7.26L206.50-7.26L214.02-7.26Q213.38-3.74 210.96-1.76Q208.54 0.22 205.02 0.22L205.02 0.22Q202.34 0.22 200.24-0.90Q198.14-2.02 196.98-4.11Q195.81-6.21 195.81-9.02L195.81-9.02ZM236.29 0L227.81 0L223.36-7.20L223.36 0L216.26 0L216.26-23.68L223.36-23.68L223.36-11.30L227.87-18.05L236.13-18.05L229.38-8.96L236.29 0Z"/></svg>